<svg width="75" height="75" viewBox="0 0 75 75" fill="none" xmlns="http://www.w3.org/2000/svg">
<g id="guidance:waiting-room" clip-path="url(#clip0_5_55)">
<path id="Vector" d="M56.25 9.37524V15.6252H62.5M3.125 60.9377H25M23.4375 43.7502V20.3127H19.775C17.6939 20.3128 15.6719 21.0053 14.0277 22.2811C12.3835 23.557 11.2106 25.3437 10.6937 27.3596L4.6875 50.7815V51.5627H32.8125V56.2502C32.8125 60.9377 32.8125 64.0627 35.1562 68.7502C35.1562 68.7502 37.5 73.4377 40.625 73.4377M56.25 29.6877C52.5204 29.6877 48.9435 28.2062 46.3063 25.5689C43.6691 22.9317 42.1875 19.3549 42.1875 15.6252C42.1875 11.8956 43.6691 8.31879 46.3063 5.68156C48.9435 3.04432 52.5204 1.56274 56.25 1.56274C59.9796 1.56274 63.5565 3.04432 66.1937 5.68156C68.8309 8.31879 70.3125 11.8956 70.3125 15.6252C70.3125 19.3549 68.8309 22.9317 66.1937 25.5689C63.5565 28.2062 59.9796 29.6877 56.25 29.6877ZM22.9687 14.0627C22.9687 14.0627 17.9688 10.9377 17.9688 7.03149C17.9687 6.31415 18.11 5.60383 18.3846 4.94109C18.6591 4.27834 19.0614 3.67616 19.5687 3.16892C20.0759 2.66168 20.6781 2.25932 21.3408 1.9848C22.0036 1.71029 22.7139 1.56899 23.4313 1.56899C24.1486 1.56899 24.8589 1.71029 25.5217 1.9848C26.1844 2.25932 26.7866 2.66168 27.2938 3.16892C27.8011 3.67616 28.2034 4.27834 28.4779 4.94109C28.7525 5.60383 28.8938 6.31415 28.8938 7.03149C28.8938 10.9377 23.9063 14.0627 23.9063 14.0627H22.9687Z" stroke="#C42126" stroke-width="3.125"/>
</g>
<defs>
<clipPath id="clip0_5_55">
<rect width="75" height="75" fill="white" transform="translate(0 0.000244141)"/>
</clipPath>
</defs>
</svg>
