<svg width="79" height="79" viewBox="0 0 79 79" fill="none" xmlns="http://www.w3.org/2000/svg">
<g id="ph:camera-light">
<path id="Vector" d="M64.1875 17.8987H55.3031L50.918 11.3164C50.7486 11.0625 50.5191 10.8545 50.2499 10.7107C49.9807 10.567 49.6802 10.492 49.375 10.4924H29.625C29.3198 10.492 29.0193 10.567 28.7501 10.7107C28.4809 10.8545 28.2514 11.0625 28.082 11.3164L23.6938 17.8987H14.8125C13.0119 17.8987 11.2851 18.614 10.0119 19.8872C8.73871 21.1603 8.02344 22.8872 8.02344 24.6877V59.2502C8.02344 61.0508 8.73871 62.7776 10.0119 64.0508C11.2851 65.324 13.0119 66.0393 14.8125 66.0393H64.1875C65.9881 66.0393 67.7149 65.324 68.9881 64.0508C70.2613 62.7776 70.9766 61.0508 70.9766 59.2502V24.6877C70.9766 22.8872 70.2613 21.1603 68.9881 19.8872C67.7149 18.614 65.9881 17.8987 64.1875 17.8987ZM67.2734 59.2502C67.2734 60.0687 66.9483 60.8536 66.3696 61.4323C65.7909 62.0111 65.0059 62.3362 64.1875 62.3362H14.8125C13.9941 62.3362 13.2091 62.0111 12.6304 61.4323C12.0517 60.8536 11.7266 60.0687 11.7266 59.2502V24.6877C11.7266 23.8693 12.0517 23.0844 12.6304 22.5057C13.2091 21.9269 13.9941 21.6018 14.8125 21.6018H24.6875C24.9927 21.6023 25.2932 21.5273 25.5624 21.3835C25.8316 21.2398 26.0611 21.0317 26.2305 20.7779L30.6156 14.1956H48.3813L52.7695 20.7779C52.9389 21.0317 53.1684 21.2398 53.4376 21.3835C53.7068 21.5273 54.0073 21.6023 54.3125 21.6018H64.1875C65.0059 21.6018 65.7909 21.9269 66.3696 22.5057C66.9483 23.0844 67.2734 23.8693 67.2734 24.6877V59.2502ZM39.5 27.7737C36.9366 27.7737 34.4307 28.5338 32.2993 29.958C30.1679 31.3822 28.5066 33.4064 27.5257 35.7747C26.5447 38.143 26.288 40.749 26.7881 43.2632C27.2882 45.7773 28.5226 48.0868 30.3352 49.8994C32.1479 51.712 34.4573 52.9464 36.9714 53.4465C39.4856 53.9466 42.0916 53.6899 44.4599 52.709C46.8282 51.728 48.8525 50.0667 50.2766 47.9353C51.7008 45.8039 52.4609 43.2981 52.4609 40.7346C52.4609 37.2972 51.0954 34.0005 48.6648 31.5699C46.2341 29.1392 42.9375 27.7737 39.5 27.7737ZM39.5 49.9924C37.669 49.9924 35.8791 49.4495 34.3566 48.4322C32.8342 47.415 31.6476 45.9691 30.9469 44.2774C30.2462 42.5858 30.0629 40.7244 30.4201 38.9285C30.7773 37.1327 31.659 35.4831 32.9537 34.1884C34.2485 32.8936 35.8981 32.0119 37.6939 31.6547C39.4897 31.2975 41.3512 31.4808 43.0428 32.1815C44.7345 32.8822 46.1803 34.0688 47.1976 35.5913C48.2149 37.1137 48.7578 38.9036 48.7578 40.7346C48.7578 43.1899 47.7824 45.5447 46.0463 47.2809C44.3101 49.0171 41.9553 49.9924 39.5 49.9924Z" fill="#C42126"/>
</g>
</svg>
