<svg width="79" height="79" viewBox="0 0 79 79" fill="none" xmlns="http://www.w3.org/2000/svg">
<g id="solar:upload-outline">
<path id="Vector" fill-rule="evenodd" clip-rule="evenodd" d="M39.4999 4.11475C39.8564 4.11452 40.2087 4.19149 40.5325 4.34036C40.8564 4.48923 41.1442 4.70648 41.3762 4.97716L51.2512 16.498C51.6772 16.9956 51.8881 17.6421 51.8375 18.2952C51.7869 18.9483 51.4789 19.5546 50.9813 19.9806C50.4836 20.4066 49.8372 20.6175 49.1841 20.5669C48.5309 20.5163 47.9247 20.2083 47.4987 19.7107L41.9687 13.259V49.3752C41.9687 50.0299 41.7086 50.6579 41.2456 51.1208C40.7826 51.5838 40.1547 51.8439 39.4999 51.8439C38.8452 51.8439 38.2172 51.5838 37.7542 51.1208C37.2913 50.6579 37.0312 50.0299 37.0312 49.3752V13.2557L31.5012 19.7107C31.2902 19.9571 31.0328 20.1595 30.7436 20.3064C30.4545 20.4533 30.1392 20.5418 29.8158 20.5669C29.4924 20.592 29.1672 20.5531 28.8589 20.4525C28.5505 20.3519 28.265 20.1915 28.0186 19.9806C27.7722 19.7696 27.5698 19.5122 27.4229 19.223C27.2759 18.9339 27.1874 18.6186 27.1624 18.2952C27.1373 17.9718 27.1762 17.6466 27.2768 17.3383C27.3774 17.0299 27.5377 16.7444 27.7487 16.498L37.6237 4.97716C37.8556 4.70648 38.1434 4.48923 38.4673 4.34036C38.7912 4.19149 39.1435 4.11452 39.4999 4.11475ZM23.0284 27.163C23.6832 27.1595 24.3125 27.4163 24.7779 27.8768C25.2434 28.3373 25.5068 28.9638 25.5103 29.6186C25.5138 30.2733 25.2571 30.9027 24.7966 31.3681C24.3361 31.8336 23.7095 32.097 23.0548 32.1005C19.457 32.1202 16.9059 32.2124 14.9671 32.5679C13.104 32.9135 12.0211 33.4632 11.2212 34.2631C10.3094 35.1749 9.71692 36.4554 9.39104 38.8715C9.05859 41.3567 9.052 44.6516 9.052 49.3752V52.6668C9.052 57.3937 9.05859 60.6886 9.39104 63.1738C9.71692 65.5899 10.3127 66.8671 11.2212 67.7822C12.133 68.6907 13.4102 69.2832 15.8295 69.609C18.3115 69.9448 21.6097 69.9481 26.3333 69.9481H52.6666C57.3901 69.9481 60.6851 69.9448 63.1736 69.609C65.5897 69.2832 66.8668 68.6907 67.7786 67.7789C68.6904 66.8671 69.2829 65.5899 69.6088 63.1738C69.9413 60.6886 69.9478 57.3937 69.9478 52.6668V49.3752C69.9478 44.6516 69.9413 41.3567 69.6088 38.8682C69.2829 36.4554 68.6871 35.1749 67.7786 34.2631C66.9755 33.4632 65.8958 32.9135 64.0327 32.5679C62.0939 32.2124 59.5429 32.1202 55.9451 32.1005C55.6209 32.0988 55.3002 32.0332 55.0013 31.9075C54.7025 31.7819 54.4313 31.5986 54.2033 31.3681C53.9753 31.1376 53.7949 30.8645 53.6724 30.5643C53.5499 30.2641 53.4878 29.9428 53.4895 29.6186C53.4912 29.2944 53.5568 28.9737 53.6825 28.6748C53.8081 28.376 53.9914 28.1048 54.2219 27.8768C54.4524 27.6487 54.7255 27.4683 55.0257 27.3459C55.3259 27.2234 55.6472 27.1613 55.9714 27.163C59.533 27.1827 62.4988 27.2683 64.9248 27.7127C67.4198 28.1735 69.543 29.0458 71.2711 30.774C73.2527 32.7522 74.1019 35.2506 74.5035 38.2131C74.8853 41.0637 74.8853 44.6944 74.8853 49.1941V52.8479C74.8853 57.3509 74.8853 60.9783 74.5035 63.8322C74.1019 66.7947 73.2527 69.2897 71.2711 71.2713C69.2895 73.2529 66.7944 74.1022 63.8319 74.5038C60.978 74.8856 57.3473 74.8856 52.8476 74.8856H26.1522C21.6525 74.8856 18.0218 74.8856 15.1679 74.5038C12.2054 74.1055 9.71034 73.2529 7.72875 71.2713C5.74717 69.2897 4.89792 66.7947 4.49963 63.8322C4.1145 60.9783 4.1145 57.3476 4.1145 52.8479V49.1941C4.1145 44.6944 4.1145 41.0637 4.49963 38.2098C4.89463 35.2473 5.75046 32.7522 7.72875 30.7707C9.45688 29.0458 11.58 28.1702 14.0751 27.7127C16.501 27.2683 19.4668 27.1827 23.0284 27.163Z" fill="#C42126"/>
</g>
</svg>
